<svg width="63" height="62" viewBox="0 0 63 62" fill="none" xmlns="http://www.w3.org/2000/svg">
<rect width="63" height="62" rx="12" fill="#3C1356"/>
<path d="M21.5 21C27.299 21 32 25.701 32 31.5C32 37.299 27.299 42 21.5 42C15.701 42 11 37.299 11 31.5C11 25.701 15.701 21 21.5 21Z" stroke="white" stroke-width="6"/>
<path d="M41.687 18.5C48.8667 18.5 54.687 24.3203 54.687 31.5C54.687 38.6797 48.8667 44.5 41.687 44.5C34.5073 44.5 28.687 38.6797 28.687 31.5C28.687 24.3203 34.5073 18.5 41.687 18.5Z" stroke="white"/>
<path d="M31.2147 24.3037C31.2982 24.3037 31.4838 24.3675 31.7352 24.7646C31.9743 25.1422 32.1986 25.7113 32.3895 26.4316C32.7695 27.8655 32.9862 29.7767 32.9862 31.626C32.9862 33.4809 32.7999 35.3947 32.4501 36.8301C32.2742 37.5516 32.0648 38.12 31.8368 38.4961C31.5979 38.89 31.4205 38.948 31.3417 38.9482C31.2364 38.9482 31.0097 38.8595 30.6962 38.4512C30.4003 38.0659 30.1027 37.4909 29.8368 36.7744C29.3062 35.345 28.9393 33.4481 28.9393 31.626C28.9394 29.7985 29.2759 27.8987 29.7762 26.4688C30.0272 25.7517 30.3113 25.1787 30.5956 24.7949C30.8963 24.3891 31.1134 24.3039 31.2147 24.3037Z" fill="white" stroke="white"/>
</svg>
